<?xml version="1.0" encoding="utf-8"?>
<svg version="1.1" xmlns="http://www.w3.org/2000/svg" xmlns:xlink="http://www.w3.org/1999/xlink" x="0px" y="0px"
	 viewBox="0 0 402.6 557" style="enable-background:new 0 0 402.6 557;" xml:space="preserve">
	<g>
		<path fill="currentColor" d="M201.1,0.2L5.6,137.2c0,0-14,11.4,0,22.8c14,11.4,27.9,0,27.9,0L201.1,45.9l167.6,114.2c0,0,14,11.4,27.9,0
		c14-11.4,0-22.8,0-22.8L201.1,0.2z"/>
		<path fill="currentColor" d="M201.1,557l195.5-137c0,0,14-11.4,0-22.8c-14-11.4-27.9,0-27.9,0L201.1,511.3L33.5,397.1c0,0-14-11.4-27.9,0s0,22.8,0,22.8
		"/>
	</g>
</svg>